<svg xmlns="http://www.w3.org/2000/svg" class="graphdiagram" viewBox="-546.6479486989417 -1342.8104592555637 2770.308820682969 2700.2335554043107"><g class="layer relationships"><g class="related-pair"><g class="relationship" transform="translate(0,-315.31495410203934) rotate(90)"><path class="relationship" d="M 108.83177790126219 4 L 502.6204821757834 4 L 502.6204821757834 16 L 534.6204821757834 0 L 502.6204821757834 -16 L 502.6204821757834 -4 L 108.83177790126219 -4 Z" fill="rgb(0, 0, 0)" stroke="rgb(51, 51, 51)" stroke-width="0px"/><text class="type" text-anchor="middle" baseline-shift="30%" alignment-baseline="alphabetic" x="305.7261300385228" y="0" font-size="50px" font-family="'Gill Sans', 'Gill Sans MT', Calibri, sans-serif">has_event</text></g></g><g class="related-pair"><g class="relationship" transform="translate(0,323.7593688964844) rotate(0)"><path class="relationship" d="M 104.45384082274029 4 L 1178.962252850509 4 L 1178.962252850509 16 L 1210.962252850509 0 L 1178.962252850509 -16 L 1178.962252850509 -4 L 104.45384082274029 -4 Z" fill="rgb(0, 0, 0)" stroke="rgb(51, 51, 51)" stroke-width="0px"/><text class="type" text-anchor="middle" baseline-shift="30%" alignment-baseline="alphabetic" x="641.7080468366247" y="0" font-size="50px" font-family="'Gill Sans', 'Gill Sans MT', Calibri, sans-serif">consumes</text></g></g><g class="related-pair"><g class="relationship" transform="translate(1302.7165145874023,323.7593688964844) rotate(-90)"><path class="relationship" d="M 91.75426173689328 4 L 483.9213125692279 4 L 483.9213125692279 16 L 515.9213125692279 0 L 483.9213125692279 -16 L 483.9213125692279 -4 L 91.75426173689328 -4 Z" fill="rgb(0, 0, 0)" stroke="rgb(51, 51, 51)" stroke-width="0px"/><text class="type" text-anchor="middle" baseline-shift="30%" alignment-baseline="alphabetic" x="287.8377871530606" y="0" font-size="50px" font-family="'Gill Sans', 'Gill Sans MT', Calibri, sans-serif">belongs_to</text></g></g></g><g class="layer nodes"><circle class="node node-id-0" r="93.83177790126219" fill="rgb(255, 255, 255)" stroke="rgb(0, 0, 0)" stroke-width="8px" cx="0" cy="-315.31495410203934"/><g class="caption"><text class="caption node" text-anchor="middle" alignment-baseline="central" x="0" y="-315.31495410203934" font-size="50px" font-family="'Gill Sans', 'Gill Sans MT', Calibri, sans-serif">Person</text></g><circle class="node node-id-1" r="89.45384082274029" fill="rgb(255, 255, 255)" stroke="rgb(0, 0, 0)" stroke-width="8px" cx="0" cy="323.7593688964844"/><g class="caption"><text class="caption node" text-anchor="middle" alignment-baseline="central" x="0" y="323.7593688964844" font-size="50px" font-family="'Gill Sans', 'Gill Sans MT', Calibri, sans-serif">Events</text></g><circle class="node node-id-2" r="76.75426173689328" fill="rgb(255, 255, 255)" stroke="rgb(0, 0, 0)" stroke-width="8px" cx="1302.7165145874023" cy="323.7593688964844"/><g class="caption"><text class="caption node" text-anchor="middle" alignment-baseline="central" x="1302.7165145874023" y="323.7593688964844" font-size="50px" font-family="'Gill Sans', 'Gill Sans MT', Calibri, sans-serif">Food</text></g><circle class="node node-id-3" r="140.85479265585826" fill="rgb(255, 255, 255)" stroke="rgb(0, 0, 0)" stroke-width="8px" cx="1302.7165145874023" cy="-348.01673632860184"/><g class="caption"><text class="caption node" text-anchor="middle" alignment-baseline="central" x="1302.7165145874023" y="-348.01673632860184" font-size="50px" font-family="'Gill Sans', 'Gill Sans MT', Calibri, sans-serif">FoodGroup</text></g></g><g class="layer properties"><g class="speech-bubble node-speech-bubble" transform="translate(0,-409.1467320033015) "><path class="speech-bubble-outline" transform="scale(1,-1) " d="M 0 0 L -10 20 L -178.0029296875 20 A 10 10 0 0 0 -188.0029296875 30 L -188.0029296875 230 A 10 10 0 0 0 -178.0029296875 240 L 178.0029296875 240 A 10 10 0 0 0 188.0029296875 230 L 188.0029296875 30 A 10 10 0 0 0 178.0029296875 20 L 10 20 Z" fill="rgb(255, 255, 255)" stroke="rgb(0, 0, 0)" stroke-width="3px"/><text class="speech-bubble-content property-key" x="36.3525390625" y="-205" alignment-baseline="central" text-anchor="end" font-size="50px" font-family="'Gill Sans', 'Gill Sans MT', Calibri, sans-serif" xml:space="preserve">{id: </text><text class="speech-bubble-content property-key" x="36.3525390625" y="-155" alignment-baseline="central" text-anchor="end" font-size="50px" font-family="'Gill Sans', 'Gill Sans MT', Calibri, sans-serif" xml:space="preserve">{female: </text><text class="speech-bubble-content property-key" x="36.3525390625" y="-105" alignment-baseline="central" text-anchor="end" font-size="50px" font-family="'Gill Sans', 'Gill Sans MT', Calibri, sans-serif" xml:space="preserve">{ageyears: </text><text class="speech-bubble-content property-key" x="36.3525390625" y="-55" alignment-baseline="central" text-anchor="end" font-size="50px" font-family="'Gill Sans', 'Gill Sans MT', Calibri, sans-serif" xml:space="preserve">{bmi: </text><text class="speech-bubble-content property-value" x="36.3525390625" y="-205" alignment-baseline="central" font-size="50px" font-family="'Gill Sans', 'Gill Sans MT', Calibri, sans-serif">62163}</text><text class="speech-bubble-content property-value" x="36.3525390625" y="-155" alignment-baseline="central" font-size="50px" font-family="'Gill Sans', 'Gill Sans MT', Calibri, sans-serif">0}</text><text class="speech-bubble-content property-value" x="36.3525390625" y="-105" alignment-baseline="central" font-size="50px" font-family="'Gill Sans', 'Gill Sans MT', Calibri, sans-serif">14}</text><text class="speech-bubble-content property-value" x="36.3525390625" y="-55" alignment-baseline="central" font-size="50px" font-family="'Gill Sans', 'Gill Sans MT', Calibri, sans-serif">17.3}</text></g><g class="speech-bubble node-speech-bubble" transform="translate(-63.253417448941676,387.01278634542604) "><path class="speech-bubble-outline" transform="scale(-1,1) " d="M 0 0 L 30 20 L 471.89453125 20 A 10 10 0 0 1 481.89453125 30 L 481.89453125 230 A 10 10 0 0 1 471.89453125 240 L 30 240 A 10 10 0 0 1 20 230 L 20 30 Z" fill="rgb(255, 255, 255)" stroke="rgb(0, 0, 0)" stroke-width="3px"/><text class="speech-bubble-content property-key" x="-213.7646484375" y="55" alignment-baseline="central" text-anchor="end" font-size="50px" font-family="'Gill Sans', 'Gill Sans MT', Calibri, sans-serif" xml:space="preserve">{id: </text><text class="speech-bubble-content property-key" x="-213.7646484375" y="105" alignment-baseline="central" text-anchor="end" font-size="50px" font-family="'Gill Sans', 'Gill Sans MT', Calibri, sans-serif" xml:space="preserve">{name: </text><text class="speech-bubble-content property-key" x="-213.7646484375" y="155" alignment-baseline="central" text-anchor="end" font-size="50px" font-family="'Gill Sans', 'Gill Sans MT', Calibri, sans-serif" xml:space="preserve">{dayofweek: </text><text class="speech-bubble-content property-key" x="-213.7646484375" y="205" alignment-baseline="central" text-anchor="end" font-size="50px" font-family="'Gill Sans', 'Gill Sans MT', Calibri, sans-serif" xml:space="preserve">{eventtime: </text><text class="speech-bubble-content property-value" x="-213.7646484375" y="55" alignment-baseline="central" font-size="50px" font-family="'Gill Sans', 'Gill Sans MT', Calibri, sans-serif">165606}</text><text class="speech-bubble-content property-value" x="-213.7646484375" y="105" alignment-baseline="central" font-size="50px" font-family="'Gill Sans', 'Gill Sans MT', Calibri, sans-serif">Snack}</text><text class="speech-bubble-content property-value" x="-213.7646484375" y="155" alignment-baseline="central" font-size="50px" font-family="'Gill Sans', 'Gill Sans MT', Calibri, sans-serif">Tuesday}</text><text class="speech-bubble-content property-value" x="-213.7646484375" y="205" alignment-baseline="central" font-size="50px" font-family="'Gill Sans', 'Gill Sans MT', Calibri, sans-serif">21.25}</text></g><g class="speech-bubble relationship-speech-bubble" transform="translate(0,-9.58882406351654) "><path class="speech-bubble-outline" transform="scale(-1,1) " d="M 0 0 L 20 -10 L 20 -25 A 10 10 0 0 1 30 -35 L 266.23046875 -35 A 10 10 0 0 1 276.23046875 -25 L 276.23046875 25 A 10 10 0 0 1 266.23046875 35 L 30 35 A 10 10 0 0 1 20 25 L 20 10 Z" fill="rgb(255, 255, 255)" stroke="rgb(0, 0, 0)" stroke-width="3px"/><text class="speech-bubble-content property-key" x="-71.650390625" y="0" alignment-baseline="central" text-anchor="end" font-size="50px" font-family="'Gill Sans', 'Gill Sans MT', Calibri, sans-serif" xml:space="preserve">{athome: </text><text class="speech-bubble-content property-value" x="-71.650390625" y="0" alignment-baseline="central" font-size="50px" font-family="'Gill Sans', 'Gill Sans MT', Calibri, sans-serif">1}</text></g><g class="speech-bubble node-speech-bubble" transform="translate(1356.9899735465267,378.0328278556088) "><path class="speech-bubble-outline" transform="scale(1,1) " d="M 0 0 L 30 20 L 855.1708984375 20 A 10 10 0 0 1 865.1708984375 30 L 865.1708984375 130 A 10 10 0 0 1 855.1708984375 140 L 30 140 A 10 10 0 0 1 20 130 L 20 30 Z" fill="rgb(255, 255, 255)" stroke="rgb(0, 0, 0)" stroke-width="3px"/><text class="speech-bubble-content property-key" x="180.341796875" y="55" alignment-baseline="central" text-anchor="end" font-size="50px" font-family="'Gill Sans', 'Gill Sans MT', Calibri, sans-serif" xml:space="preserve">{id: </text><text class="speech-bubble-content property-key" x="180.341796875" y="105" alignment-baseline="central" text-anchor="end" font-size="50px" font-family="'Gill Sans', 'Gill Sans MT', Calibri, sans-serif" xml:space="preserve">{name: </text><text class="speech-bubble-content property-value" x="180.341796875" y="55" alignment-baseline="central" font-size="50px" font-family="'Gill Sans', 'Gill Sans MT', Calibri, sans-serif">183335}</text><text class="speech-bubble-content property-value" x="180.341796875" y="105" alignment-baseline="central" font-size="50px" font-family="'Gill Sans', 'Gill Sans MT', Calibri, sans-serif">Salty Snacks, Corn, Tortilla Chip}</text></g><g class="speech-bubble relationship-speech-bubble" transform="translate(641.7080468366247,323.7593688964844) "><path class="speech-bubble-outline" transform="scale(1,1) " d="M 0 0 L -10 20 L -420.556640625 20 A 10 10 0 0 0 -430.556640625 30 L -430.556640625 330 A 10 10 0 0 0 -420.556640625 340 L 420.556640625 340 A 10 10 0 0 0 430.556640625 330 L 430.556640625 30 A 10 10 0 0 0 420.556640625 20 L 10 20 Z" fill="rgb(255, 255, 255)" stroke="rgb(0, 0, 0)" stroke-width="3px"/><text class="speech-bubble-content property-key" x="-148.4130859375" y="55" alignment-baseline="central" text-anchor="end" font-size="50px" font-family="'Gill Sans', 'Gill Sans MT', Calibri, sans-serif" xml:space="preserve">{amount: </text><text class="speech-bubble-content property-key" x="-148.4130859375" y="105" alignment-baseline="central" text-anchor="end" font-size="50px" font-family="'Gill Sans', 'Gill Sans MT', Calibri, sans-serif" xml:space="preserve">{foodsource: </text><text class="speech-bubble-content property-key" x="-148.4130859375" y="155" alignment-baseline="central" text-anchor="end" font-size="50px" font-family="'Gill Sans', 'Gill Sans MT', Calibri, sans-serif" xml:space="preserve">{protein: </text><text class="speech-bubble-content property-key" x="-148.4130859375" y="205" alignment-baseline="central" text-anchor="end" font-size="50px" font-family="'Gill Sans', 'Gill Sans MT', Calibri, sans-serif" xml:space="preserve">{fat: </text><text class="speech-bubble-content property-key" x="-148.4130859375" y="255" alignment-baseline="central" text-anchor="end" font-size="50px" font-family="'Gill Sans', 'Gill Sans MT', Calibri, sans-serif" xml:space="preserve">{calories: </text><text class="speech-bubble-content property-key" x="-148.4130859375" y="305" alignment-baseline="central" text-anchor="end" font-size="50px" font-family="'Gill Sans', 'Gill Sans MT', Calibri, sans-serif" xml:space="preserve">{sugar: </text><text class="speech-bubble-content property-value" x="-148.4130859375" y="55" alignment-baseline="central" font-size="50px" font-family="'Gill Sans', 'Gill Sans MT', Calibri, sans-serif">28}</text><text class="speech-bubble-content property-value" x="-148.4130859375" y="105" alignment-baseline="central" font-size="50px" font-family="'Gill Sans', 'Gill Sans MT', Calibri, sans-serif">Store grocery/supermarket}</text><text class="speech-bubble-content property-value" x="-148.4130859375" y="155" alignment-baseline="central" font-size="50px" font-family="'Gill Sans', 'Gill Sans MT', Calibri, sans-serif">1.97}</text><text class="speech-bubble-content property-value" x="-148.4130859375" y="205" alignment-baseline="central" font-size="50px" font-family="'Gill Sans', 'Gill Sans MT', Calibri, sans-serif">5.84}</text><text class="speech-bubble-content property-value" x="-148.4130859375" y="255" alignment-baseline="central" font-size="50px" font-family="'Gill Sans', 'Gill Sans MT', Calibri, sans-serif">132}</text><text class="speech-bubble-content property-value" x="-148.4130859375" y="305" alignment-baseline="central" font-size="50px" font-family="'Gill Sans', 'Gill Sans MT', Calibri, sans-serif">.22}</text></g><g class="speech-bubble node-speech-bubble" transform="translate(1302.7165145874023,-488.8715289844601) "><path class="speech-bubble-outline" transform="scale(1,-1) " d="M 0 0 L -10 20 L -210.02197265625 20 A 10 10 0 0 0 -220.02197265625 30 L -220.02197265625 130 A 10 10 0 0 0 -210.02197265625 140 L 210.02197265625 140 A 10 10 0 0 0 220.02197265625 130 L 220.02197265625 30 A 10 10 0 0 0 210.02197265625 20 L 10 20 Z" fill="rgb(255, 255, 255)" stroke="rgb(0, 0, 0)" stroke-width="3px"/><text class="speech-bubble-content property-key" x="43.37158203125" y="-105" alignment-baseline="central" text-anchor="end" font-size="50px" font-family="'Gill Sans', 'Gill Sans MT', Calibri, sans-serif" xml:space="preserve">{id: </text><text class="speech-bubble-content property-key" x="43.37158203125" y="-55" alignment-baseline="central" text-anchor="end" font-size="50px" font-family="'Gill Sans', 'Gill Sans MT', Calibri, sans-serif" xml:space="preserve">{foodgroup: </text><text class="speech-bubble-content property-value" x="43.37158203125" y="-105" alignment-baseline="central" font-size="50px" font-family="'Gill Sans', 'Gill Sans MT', Calibri, sans-serif">183591}</text><text class="speech-bubble-content property-value" x="43.37158203125" y="-55" alignment-baseline="central" font-size="50px" font-family="'Gill Sans', 'Gill Sans MT', Calibri, sans-serif">Fruit}</text></g></g><g class="layer overlay"><circle class="node overlay" r="97.83177790126219" stroke="none" fill="rgba(255, 255, 255, 0)" cx="0" cy="-315.31495410203934"/><circle class="node ring" r="102.83177790126219" fill="none" stroke="rgba(255, 255, 255, 0)" stroke-width="10px" cx="0" cy="-315.31495410203934"/><circle class="node overlay" r="93.45384082274029" stroke="none" fill="rgba(255, 255, 255, 0)" cx="0" cy="323.7593688964844"/><circle class="node ring" r="98.45384082274029" fill="none" stroke="rgba(255, 255, 255, 0)" stroke-width="10px" cx="0" cy="323.7593688964844"/><path class="relationship overlay" fill="rgba(255, 255, 255, 0)" stroke="rgba(255, 255, 255, 0)" stroke-width="10px" transform="translate(0,-315.31495410203934) rotate(90)" d="M 108.83177790126219 4 L 502.6204821757834 4 L 502.6204821757834 16 L 534.6204821757834 0 L 502.6204821757834 -16 L 502.6204821757834 -4 L 108.83177790126219 -4 Z"/><circle class="node overlay" r="80.75426173689328" stroke="none" fill="rgba(255, 255, 255, 0)" cx="1302.7165145874023" cy="323.7593688964844"/><circle class="node ring" r="85.75426173689328" fill="none" stroke="rgba(255, 255, 255, 0)" stroke-width="10px" cx="1302.7165145874023" cy="323.7593688964844"/><path class="relationship overlay" fill="rgba(255, 255, 255, 0)" stroke="rgba(255, 255, 255, 0)" stroke-width="10px" transform="translate(0,323.7593688964844) rotate(0)" d="M 104.45384082274029 4 L 1178.962252850509 4 L 1178.962252850509 16 L 1210.962252850509 0 L 1178.962252850509 -16 L 1178.962252850509 -4 L 104.45384082274029 -4 Z"/><circle class="node overlay" r="144.85479265585826" stroke="none" fill="rgba(255, 255, 255, 0)" cx="1302.7165145874023" cy="-348.01673632860184"/><circle class="node ring" r="149.85479265585826" fill="none" stroke="rgba(255, 255, 255, 0)" stroke-width="10px" cx="1302.7165145874023" cy="-348.01673632860184"/><path class="relationship overlay" fill="rgba(255, 255, 255, 0)" stroke="rgba(255, 255, 255, 0)" stroke-width="10px" transform="translate(1302.7165145874023,323.7593688964844) rotate(-90)" d="M 91.75426173689328 4 L 483.9213125692279 4 L 483.9213125692279 16 L 515.9213125692279 0 L 483.9213125692279 -16 L 483.9213125692279 -4 L 91.75426173689328 -4 Z"/></g></svg>