<svg xmlns="http://www.w3.org/2000/svg" class="graphdiagram" viewBox="-21199.689340799217 10627.433184179816 2261.714437907963 1215.7245524589707"><g class="layer relationships"><g class="related-pair"><g class="relationship" transform="translate(-20392.369632471997,10962.764962081077) rotate(90)"><path class="relationship" d="M 108.83177790126219 4 L 439.18551628602677 4 L 439.18551628602677 16 L 471.18551628602677 0 L 439.18551628602677 -16 L 439.18551628602677 -4 L 108.83177790126219 -4 Z" fill="rgb(0, 0, 0)" stroke="rgb(51, 51, 51)" stroke-width="0px"/><text class="type" text-anchor="middle" baseline-shift="30%" alignment-baseline="alphabetic" x="274.00864709364447" y="0" font-size="50px" font-family="'Gill Sans', 'Gill Sans MT', Calibri, sans-serif">Has_event</text></g></g><g class="related-pair"><g class="relationship" transform="translate(-20392.369632471997,11538.404319189845) rotate(0)"><path class="relationship" d="M 104.45384082274029 4 L 600.9576105411747 4 L 600.9576105411747 16 L 632.9576105411747 0 L 600.9576105411747 -16 L 600.9576105411747 -4 L 104.45384082274029 -4 Z" fill="rgb(0, 0, 0)" stroke="rgb(51, 51, 51)" stroke-width="0px"/><text class="type" text-anchor="middle" baseline-shift="30%" alignment-baseline="alphabetic" x="352.7057256819575" y="0" font-size="50px" font-family="'Gill Sans', 'Gill Sans MT', Calibri, sans-serif">consumes</text></g></g></g><g class="layer nodes"><circle class="node node-id-0" r="76.75426173689328" fill="rgb(255, 255, 255)" stroke="rgb(0, 0, 0)" stroke-width="8px" cx="-19667.657760193928" cy="11538.404319189845"/><g class="caption"><text class="caption node" text-anchor="middle" alignment-baseline="central" x="-19667.657760193928" y="11538.404319189845" font-size="50px" font-family="'Gill Sans', 'Gill Sans MT', Calibri, sans-serif">Food</text></g><circle class="node node-id-5" r="93.83177790126219" fill="rgb(255, 255, 255)" stroke="rgb(0, 0, 0)" stroke-width="8px" cx="-20392.369632471997" cy="10962.764962081077"/><g class="caption"><text class="caption node" text-anchor="middle" alignment-baseline="central" x="-20392.369632471997" y="10962.764962081077" font-size="50px" font-family="'Gill Sans', 'Gill Sans MT', Calibri, sans-serif">Person</text></g><circle class="node node-id-5" r="89.45384082274029" fill="rgb(255, 255, 255)" stroke="rgb(0, 0, 0)" stroke-width="8px" cx="-20392.369632471997" cy="11538.404319189845"/><g class="caption"><text class="caption node" text-anchor="middle" alignment-baseline="central" x="-20392.369632471997" y="11538.404319189845" font-size="50px" font-family="'Gill Sans', 'Gill Sans MT', Calibri, sans-serif">Events</text></g></g><g class="layer properties"><g class="speech-bubble relationship-speech-bubble" transform="translate(-20392.369632471997,11236.773609174721) "><path class="speech-bubble-outline" transform="scale(-1,1) " d="M 0 0 L 20 -10 L 20 -25 A 10 10 0 0 1 30 -35 L 502.8271484375 -35 A 10 10 0 0 1 512.8271484375 -25 L 512.8271484375 25 A 10 10 0 0 1 502.8271484375 35 L 30 35 A 10 10 0 0 1 20 25 L 20 10 Z" fill="rgb(255, 255, 255)" stroke="rgb(0, 0, 0)" stroke-width="3px"/><text class="speech-bubble-content property-key" x="-308.2470703125" y="0" alignment-baseline="central" text-anchor="end" font-size="50px" font-family="'Gill Sans', 'Gill Sans MT', Calibri, sans-serif" xml:space="preserve">{athome: </text><text class="speech-bubble-content property-value" x="-308.2470703125" y="0" alignment-baseline="central" font-size="50px" font-family="'Gill Sans', 'Gill Sans MT', Calibri, sans-serif">'ate at home'}</text></g><g class="speech-bubble node-speech-bubble" transform="translate(-19590.903498457035,11538.404319189845) "><path class="speech-bubble-outline" transform="scale(1,1) " d="M 0 0 L 20 -10 L 20 -25 A 10 10 0 0 1 30 -35 L 546.8701171875 -35 A 10 10 0 0 1 556.8701171875 -25 L 556.8701171875 25 A 10 10 0 0 1 546.8701171875 35 L 30 35 A 10 10 0 0 1 20 25 L 20 10 Z" fill="rgb(255, 255, 255)" stroke="rgb(0, 0, 0)" stroke-width="3px"/><text class="speech-bubble-content property-key" x="233.4912109375" y="0" alignment-baseline="central" text-anchor="end" font-size="50px" font-family="'Gill Sans', 'Gill Sans MT', Calibri, sans-serif" xml:space="preserve">{location: </text><text class="speech-bubble-content property-value" x="233.4912109375" y="0" alignment-baseline="central" font-size="50px" font-family="'Gill Sans', 'Gill Sans MT', Calibri, sans-serif">Grocery Store}</text></g><g class="speech-bubble node-speech-bubble" transform="translate(-20392.369632471997,10868.933184179816) "><path class="speech-bubble-outline" transform="scale(1,-1) " d="M 0 0 L -10 20 L -158.48388671875 20 A 10 10 0 0 0 -168.48388671875 30 L -168.48388671875 230 A 10 10 0 0 0 -158.48388671875 240 L 158.48388671875 240 A 10 10 0 0 0 168.48388671875 230 L 168.48388671875 30 A 10 10 0 0 0 158.48388671875 20 L 10 20 Z" fill="rgb(255, 255, 255)" stroke="rgb(0, 0, 0)" stroke-width="3px"/><text class="speech-bubble-content property-key" x="55.87158203125" y="-205" alignment-baseline="central" text-anchor="end" font-size="50px" font-family="'Gill Sans', 'Gill Sans MT', Calibri, sans-serif" xml:space="preserve">{id: </text><text class="speech-bubble-content property-key" x="55.87158203125" y="-155" alignment-baseline="central" text-anchor="end" font-size="50px" font-family="'Gill Sans', 'Gill Sans MT', Calibri, sans-serif" xml:space="preserve">{ageyears: </text><text class="speech-bubble-content property-value" x="55.87158203125" y="-205" alignment-baseline="central" font-size="50px" font-family="'Gill Sans', 'Gill Sans MT', Calibri, sans-serif">123}</text><text class="speech-bubble-content property-value" x="55.87158203125" y="-155" alignment-baseline="central" font-size="50px" font-family="'Gill Sans', 'Gill Sans MT', Calibri, sans-serif">5.4}</text><text class="speech-bubble-content property-key" x="55.87158203125" y="-105" alignment-baseline="central" text-anchor="end" font-size="50px" font-family="'Gill Sans', 'Gill Sans MT', Calibri, sans-serif" xml:space="preserve">{female: </text><text class="speech-bubble-content property-key" x="55.87158203125" y="-55" alignment-baseline="central" text-anchor="end" font-size="50px" font-family="'Gill Sans', 'Gill Sans MT', Calibri, sans-serif" xml:space="preserve">{bmi: </text><text class="speech-bubble-content property-value" x="55.87158203125" y="-105" alignment-baseline="central" font-size="50px" font-family="'Gill Sans', 'Gill Sans MT', Calibri, sans-serif">1}</text><text class="speech-bubble-content property-value" x="55.87158203125" y="-55" alignment-baseline="central" font-size="50px" font-family="'Gill Sans', 'Gill Sans MT', Calibri, sans-serif">23.1}</text></g><g class="speech-bubble relationship-speech-bubble" transform="translate(-20039.66390679004,11538.404319189845) "><path class="speech-bubble-outline" transform="scale(1,1) " d="M 0 0 L -10 20 L -186.5234375 20 A 10 10 0 0 0 -196.5234375 30 L -196.5234375 130 A 10 10 0 0 0 -186.5234375 140 L 186.5234375 140 A 10 10 0 0 0 196.5234375 130 L 196.5234375 30 A 10 10 0 0 0 186.5234375 20 L 10 20 Z" fill="rgb(255, 255, 255)" stroke="rgb(0, 0, 0)" stroke-width="3px"/><text class="speech-bubble-content property-key" x="10.7177734375" y="55" alignment-baseline="central" text-anchor="end" font-size="50px" font-family="'Gill Sans', 'Gill Sans MT', Calibri, sans-serif" xml:space="preserve">{amount: </text><text class="speech-bubble-content property-value" x="10.7177734375" y="55" alignment-baseline="central" font-size="50px" font-family="'Gill Sans', 'Gill Sans MT', Calibri, sans-serif">5 grams}</text><text class="speech-bubble-content property-key" x="10.7177734375" y="105" alignment-baseline="central" text-anchor="end" font-size="50px" font-family="'Gill Sans', 'Gill Sans MT', Calibri, sans-serif" xml:space="preserve">{calories: </text><text class="speech-bubble-content property-value" x="10.7177734375" y="105" alignment-baseline="central" font-size="50px" font-family="'Gill Sans', 'Gill Sans MT', Calibri, sans-serif">120}</text></g><g class="speech-bubble node-speech-bubble" transform="translate(-20455.623049920938,11601.657736638786) "><path class="speech-bubble-outline" transform="scale(-1,1) " d="M 0 0 L 30 20 L 638.0078125 20 A 10 10 0 0 1 648.0078125 30 L 648.0078125 230 A 10 10 0 0 1 638.0078125 240 L 30 240 A 10 10 0 0 1 20 230 L 20 30 Z" fill="rgb(255, 255, 255)" stroke="rgb(0, 0, 0)" stroke-width="3px"/><text class="speech-bubble-content property-key" x="-379.8779296875" y="55" alignment-baseline="central" text-anchor="end" font-size="50px" font-family="'Gill Sans', 'Gill Sans MT', Calibri, sans-serif" xml:space="preserve">{id: </text><text class="speech-bubble-content property-key" x="-379.8779296875" y="105" alignment-baseline="central" text-anchor="end" font-size="50px" font-family="'Gill Sans', 'Gill Sans MT', Calibri, sans-serif" xml:space="preserve">{eventtime: </text><text class="speech-bubble-content property-key" x="-379.8779296875" y="155" alignment-baseline="central" text-anchor="end" font-size="50px" font-family="'Gill Sans', 'Gill Sans MT', Calibri, sans-serif" xml:space="preserve">{name: </text><text class="speech-bubble-content property-key" x="-379.8779296875" y="205" alignment-baseline="central" text-anchor="end" font-size="50px" font-family="'Gill Sans', 'Gill Sans MT', Calibri, sans-serif" xml:space="preserve">{dayofweek: </text><text class="speech-bubble-content property-value" x="-379.8779296875" y="55" alignment-baseline="central" font-size="50px" font-family="'Gill Sans', 'Gill Sans MT', Calibri, sans-serif">1232}</text><text class="speech-bubble-content property-value" x="-379.8779296875" y="105" alignment-baseline="central" font-size="50px" font-family="'Gill Sans', 'Gill Sans MT', Calibri, sans-serif">UNIXtimestamp}</text><text class="speech-bubble-content property-value" x="-379.8779296875" y="155" alignment-baseline="central" font-size="50px" font-family="'Gill Sans', 'Gill Sans MT', Calibri, sans-serif">Breakfast}</text><text class="speech-bubble-content property-value" x="-379.8779296875" y="205" alignment-baseline="central" font-size="50px" font-family="'Gill Sans', 'Gill Sans MT', Calibri, sans-serif">Friday}</text></g></g><g class="layer overlay"><circle class="node overlay" r="80.75426173689328" stroke="none" fill="rgba(255, 255, 255, 0)" cx="-19667.657760193928" cy="11538.404319189845"/><circle class="node ring" r="85.75426173689328" fill="none" stroke="rgba(255, 255, 255, 0)" stroke-width="10px" cx="-19667.657760193928" cy="11538.404319189845"/><circle class="node overlay" r="97.83177790126219" stroke="none" fill="rgba(255, 255, 255, 0)" cx="-20392.369632471997" cy="10962.764962081077"/><circle class="node ring" r="102.83177790126219" fill="none" stroke="rgba(255, 255, 255, 0)" stroke-width="10px" cx="-20392.369632471997" cy="10962.764962081077"/><path class="relationship overlay" fill="rgba(255, 255, 255, 0)" stroke="rgba(255, 255, 255, 0)" stroke-width="10px" transform="translate(-20392.369632471997,10962.764962081077) rotate(90)" d="M 108.83177790126219 4 L 439.18551628602677 4 L 439.18551628602677 16 L 471.18551628602677 0 L 439.18551628602677 -16 L 439.18551628602677 -4 L 108.83177790126219 -4 Z"/><circle class="node overlay" r="93.45384082274029" stroke="none" fill="rgba(255, 255, 255, 0)" cx="-20392.369632471997" cy="11538.404319189845"/><circle class="node ring" r="98.45384082274029" fill="none" stroke="rgba(255, 255, 255, 0)" stroke-width="10px" cx="-20392.369632471997" cy="11538.404319189845"/><path class="relationship overlay" fill="rgba(255, 255, 255, 0)" stroke="rgba(255, 255, 255, 0)" stroke-width="10px" transform="translate(-20392.369632471997,11538.404319189845) rotate(0)" d="M 104.45384082274029 4 L 600.9576105411747 4 L 600.9576105411747 16 L 632.9576105411747 0 L 600.9576105411747 -16 L 600.9576105411747 -4 L 104.45384082274029 -4 Z"/></g></svg>